<svg width="22" height="22" viewBox="0 0 22 22" fill="none" xmlns="http://www.w3.org/2000/svg">
<path d="M22 6.28687C20.1528 6.18528 18.3202 6.66522 16.7601 7.65915C16.3828 7.22966 15.995 6.80016 15.5863 6.39162L15.2824 6.10879L15.4291 5.98308C15.9416 5.54333 16.3068 4.95703 16.4755 4.30328C16.6442 3.64953 16.6081 2.9598 16.3723 2.32716C16.0316 1.61292 15.4908 1.01295 14.8155 0.600117C14.1401 0.187286 13.3594 -0.0206333 12.5681 0.00161589V2.0967C12.941 2.09151 13.3085 2.18585 13.6327 2.37C13.957 2.55414 14.2262 2.82141 14.4126 3.14424C14.5907 3.56326 14.4126 4.02418 13.92 4.51652L13.679 4.73651C12.5859 3.82596 11.3859 3.05205 10.1054 2.43191C7.45394 1.23772 6.09156 1.79291 5.42085 2.43191C5.21687 2.63702 5.05333 2.87867 4.93878 3.14424L4.75014 3.69944L3.24104 8.24577C4.43574 11.2208 7.32819 16.5109 13.6161 18.7945L18.856 17.0556C19.0327 16.9898 19.1884 16.8777 19.3067 16.7309L19.5268 16.5423C21.0254 15.0338 20.0612 12.1322 18.0491 9.31427C19.2438 8.61729 20.6195 8.29266 22 8.38195V6.28687ZM18.0281 15.0548H17.9653C17.2421 15.4424 14.2449 14.4577 10.8494 11.0637C10.4931 10.7075 10.1578 10.3618 9.85383 10.0161C9.74904 9.90089 9.65472 9.77518 9.54992 9.64948L8.99449 8.97905L8.70105 8.57051C8.55433 8.37148 8.40761 8.17244 8.28185 7.98389C8.1561 7.79533 8.11418 7.71153 8.03034 7.57534C7.9465 7.43916 7.79978 7.21918 7.70546 7.0411C7.61114 6.86302 7.56922 6.78969 7.50634 6.65351C7.44346 6.51733 7.32819 6.3602 7.26531 6.21354C7.20243 6.06688 7.17099 5.97261 7.11859 5.85738C7.06619 5.74215 7.00331 5.57454 6.96139 5.43836C6.91947 5.30218 6.90899 5.23933 6.88803 5.13457C6.86707 5.02982 6.82515 4.88316 6.80419 4.77841C6.79916 4.69468 6.79916 4.61073 6.80419 4.527C6.79432 4.43648 6.79432 4.34516 6.80419 4.25464L6.91947 3.9299C7.09763 3.74134 7.87314 3.68896 9.25648 4.31749C10.1803 4.76259 11.0549 5.30328 11.866 5.9307C11.424 6.12503 10.9532 6.24536 10.4721 6.28687V8.38195C11.5857 8.32012 12.6663 7.98168 13.6161 7.39726L14.1296 7.87913C14.5907 8.32958 14.9994 8.78002 15.3767 9.20951C14.7441 10.2862 14.493 11.5447 14.6641 12.7816L16.7601 12.3731C16.6886 11.9782 16.6886 11.5737 16.7601 11.1789C18.112 13.2425 18.3635 14.7301 18.0281 15.0548ZM2.50745 10.477L0.170437 17.4956C0.00176104 18.0109 -0.0425267 18.5587 0.0411941 19.0944C0.124915 19.6301 0.334267 20.1384 0.652138 20.5777C0.970009 21.017 1.38737 21.3749 1.87012 21.6221C2.35286 21.8693 2.88727 21.9988 3.42968 22C3.78625 21.9967 4.14003 21.9366 4.47766 21.8219L11.3105 19.5488C7.45408 17.5801 4.35854 14.3901 2.50745 10.477Z" fill="white"/>
</svg>
