<svg width="24" height="24" viewBox="0 0 24 24" fill="none" xmlns="http://www.w3.org/2000/svg">
<path d="M7.323 2H4V0H8.677L10.677 5H21V7H18.882L18.055 21.059C18.04 21.3135 17.9283 21.5527 17.7428 21.7276C17.5573 21.9025 17.312 21.9999 17.057 22H6.943C6.68804 21.9999 6.44274 21.9025 6.25723 21.7276C6.07173 21.5527 5.96004 21.3135 5.945 21.059L5.118 7H3V5H8.523L7.323 2ZM7.121 7L7.299 10.025C9.971 10.135 11.268 10.63 12.36 11.067C13.411 11.487 14.28 11.853 16.587 11.967L16.879 7H7.121Z" fill="white"/>
</svg>
