<svg width="24" height="18" viewBox="0 0 24 18" fill="none" xmlns="http://www.w3.org/2000/svg">
<path d="M0.512 18V5.352H3.68L7.568 11.4L11.384 5.352H14.504V18H12.032V8.352L7.88 14.976H7.16L2.984 8.328V18H0.512ZM17.4556 9.024V7.44L19.9276 5.352C20.1356 5.176 20.3756 4.968 20.6476 4.728C20.9356 4.472 21.1836 4.2 21.3916 3.912C21.5996 3.624 21.7036 3.336 21.7036 3.048C21.7036 2.664 21.5916 2.368 21.3676 2.16C21.1436 1.952 20.8396 1.848 20.4556 1.848C20.1516 1.848 19.8796 1.928 19.6396 2.088C19.4156 2.248 19.2876 2.496 19.2556 2.832H17.4076C17.4396 1.888 17.7596 1.192 18.3676 0.743999C18.9916 0.279999 19.7356 0.0479994 20.5996 0.0479994C21.4796 0.0479994 22.1996 0.287999 22.7596 0.767999C23.3356 1.232 23.6236 1.904 23.6236 2.784C23.6236 3.456 23.4556 4.04 23.1196 4.536C22.7996 5.016 22.4156 5.464 21.9676 5.88C21.6956 6.12 21.4156 6.352 21.1276 6.576C20.8556 6.784 20.5836 7.008 20.3116 7.248H23.5516V9.024H17.4556Z" fill="white"/>
</svg>
