<svg width="24" height="21" viewBox="0 0 24 21" fill="none" xmlns="http://www.w3.org/2000/svg">
<path d="M7 7.875C8.65685 7.875 10 6.69975 10 5.25C10 3.80025 8.65685 2.625 7 2.625C5.34315 2.625 4 3.80025 4 5.25C4 6.69975 5.34315 7.875 7 7.875Z" stroke="white" stroke-width="2"/>
<path d="M9.99999 11.375H5.81799C5.10259 11.375 4.41075 11.5987 3.86725 12.0058C3.32376 12.4128 2.9644 12.9764 2.85399 13.5949L2.35999 16.3538C2.3152 16.6035 2.3328 16.8588 2.41158 17.1021C2.49036 17.3454 2.62844 17.5708 2.81633 17.7629C3.00421 17.955 3.23744 18.1092 3.49995 18.2148C3.76247 18.3205 4.04803 18.3751 4.33699 18.375H8.99999M21.64 16.3546L21.146 13.5949C21.0356 12.9764 20.6762 12.4128 20.1327 12.0058C19.5892 11.5987 18.8974 11.375 18.182 11.375H15.818C15.1026 11.375 14.4107 11.5987 13.8673 12.0058C13.3238 12.4128 12.9644 12.9764 12.854 13.5949L12.361 16.3546C12.3164 16.6043 12.3341 16.8594 12.4129 17.1025C12.4917 17.3456 12.6297 17.5709 12.8174 17.7628C13.0052 17.9548 13.2382 18.1089 13.5006 18.2146C13.7629 18.3203 14.0482 18.375 14.337 18.375H19.663C19.9518 18.375 20.2371 18.3203 20.4994 18.2146C20.7617 18.1089 20.9948 17.9548 21.1825 17.7628C21.3703 17.5709 21.5083 17.3456 21.5871 17.1025C21.6659 16.8594 21.6846 16.6043 21.64 16.3546Z" stroke="white" stroke-width="2" stroke-linecap="round" stroke-linejoin="round"/>
<path d="M17 7.875C18.6569 7.875 20 6.69975 20 5.25C20 3.80025 18.6569 2.625 17 2.625C15.3431 2.625 14 3.80025 14 5.25C14 6.69975 15.3431 7.875 17 7.875Z" stroke="white" stroke-width="2"/>
</svg>
