<svg width="18" height="19" viewBox="0 0 18 19" fill="none" xmlns="http://www.w3.org/2000/svg">
<path d="M11.6667 18V10.8419C11.6667 10.6046 11.5731 10.377 11.4064 10.2092C11.2397 10.0414 11.0136 9.94714 10.7778 9.94714H7.22226C6.98651 9.94714 6.76042 10.0414 6.59372 10.2092C6.42702 10.377 6.33337 10.6046 6.33337 10.8419V18" stroke="white" stroke-width="2" stroke-linecap="round" stroke-linejoin="round"/>
<path d="M1 8.15763C0.999938 7.89731 1.0563 7.64012 1.16514 7.40398C1.27399 7.16785 1.43271 6.95846 1.63022 6.79043L7.85244 1.42276C8.17332 1.14977 8.57987 1 9 1C9.42013 1 9.82668 1.14977 10.1476 1.42276L16.3698 6.79043C16.5673 6.95846 16.726 7.16785 16.8349 7.40398C16.9437 7.64012 17.0001 7.89731 17 8.15763V16.2105C17 16.6851 16.8127 17.1403 16.4793 17.4759C16.1459 17.8115 15.6937 18 15.2222 18H2.77778C2.30628 18 1.8541 17.8115 1.5207 17.4759C1.1873 17.1403 1 16.6851 1 16.2105V8.15763Z" stroke="white" stroke-width="2" stroke-linecap="round" stroke-linejoin="round"/>
</svg>
