<svg width="187" height="187" viewBox="0 0 187 187" fill="none" xmlns="http://www.w3.org/2000/svg">
<g filter="url(#filter0_d_88_7)">
<circle cx="94.6562" cy="89.6562" r="70.6562" fill="white"/>
</g>
<path d="M93.9143 97.8086C102.887 97.8086 110.184 90.5117 110.184 81.539C110.184 72.5664 102.887 65.2695 93.9143 65.2695C84.9417 65.2695 77.6448 72.5664 77.6448 81.539C77.6448 90.5117 84.9417 97.8086 93.9143 97.8086ZM93.9143 73.4043C98.4006 73.4043 102.049 77.0527 102.049 81.539C102.049 86.0253 98.4006 89.6738 93.9143 89.6738C89.428 89.6738 85.7795 86.0253 85.7795 81.539C85.7795 77.0527 89.428 73.4043 93.9143 73.4043Z" fill="#A63805"/>
<path d="M93.9143 97.8086C102.887 97.8086 110.184 90.5117 110.184 81.539C110.184 72.5664 102.887 65.2695 93.9143 65.2695C84.9417 65.2695 77.6448 72.5664 77.6448 81.539C77.6448 90.5117 84.9417 97.8086 93.9143 97.8086ZM93.9143 73.4043C98.4006 73.4043 102.049 77.0527 102.049 81.539C102.049 86.0253 98.4006 89.6738 93.9143 89.6738C89.428 89.6738 85.7795 86.0253 85.7795 81.539C85.7795 77.0527 89.428 73.4043 93.9143 73.4043Z" stroke="white"/>
<path d="M91.5553 129.591C92.2442 130.082 93.0688 130.345 93.9144 130.345C94.76 130.345 95.5846 130.082 96.2735 129.591C97.51 128.717 126.571 107.733 126.453 81.5391C126.453 63.5978 111.856 49 93.9144 49C75.9732 49 61.3754 63.5978 61.3754 81.5187C61.2574 107.733 90.3189 128.717 91.5553 129.591ZM93.9144 57.1348C107.373 57.1348 118.319 68.0801 118.319 81.5594C118.404 99.6104 100.471 115.819 93.9144 121.135C87.3619 115.815 69.4247 99.6023 69.5101 81.5391C69.5101 68.0801 80.4554 57.1348 93.9144 57.1348Z" fill="#A63805"/>
<path d="M91.5553 129.591C92.2442 130.082 93.0688 130.345 93.9144 130.345C94.76 130.345 95.5846 130.082 96.2735 129.591C97.51 128.717 126.571 107.733 126.453 81.5391C126.453 63.5978 111.856 49 93.9144 49C75.9732 49 61.3754 63.5978 61.3754 81.5187C61.2574 107.733 90.3189 128.717 91.5553 129.591ZM93.9144 57.1348C107.373 57.1348 118.319 68.0801 118.319 81.5594C118.404 99.6104 100.471 115.819 93.9144 121.135C87.3619 115.815 69.4247 99.6023 69.5101 81.5391C69.5101 68.0801 80.4554 57.1348 93.9144 57.1348Z" stroke="white"/>
<defs>
<filter id="filter0_d_88_7" x="0.6" y="0.6" width="186.112" height="186.112" filterUnits="userSpaceOnUse" color-interpolation-filters="sRGB">
<feFlood flood-opacity="0" result="BackgroundImageFix"/>
<feColorMatrix in="SourceAlpha" type="matrix" values="0 0 0 0 0 0 0 0 0 0 0 0 0 0 0 0 0 0 127 0" result="hardAlpha"/>
<feMorphology radius="7" operator="dilate" in="SourceAlpha" result="effect1_dropShadow_88_7"/>
<feOffset dx="-1" dy="4"/>
<feGaussianBlur stdDeviation="7.7"/>
<feComposite in2="hardAlpha" operator="out"/>
<feColorMatrix type="matrix" values="0 0 0 0 0.65098 0 0 0 0 0.219608 0 0 0 0 0.0196078 0 0 0 0.32 0"/>
<feBlend mode="normal" in2="BackgroundImageFix" result="effect1_dropShadow_88_7"/>
<feBlend mode="normal" in="SourceGraphic" in2="effect1_dropShadow_88_7" result="shape"/>
</filter>
</defs>
</svg>
