<svg width="187" height="187" viewBox="0 0 187 187" fill="none" xmlns="http://www.w3.org/2000/svg">
<g filter="url(#filter0_d_19_57)">
<circle cx="94.2812" cy="89.6562" r="70.6562" fill="white"/>
</g>
<path d="M109.586 83.5203C109.586 92.2168 102.513 99.2898 93.8164 99.2898C85.1199 99.2898 78.0468 92.2168 78.0468 83.5203C78.0468 74.8238 85.1199 67.7507 93.8164 67.7507C102.513 67.7507 109.586 74.8238 109.586 83.5203ZM102.451 83.5203C102.451 78.7578 98.5788 74.8855 93.8164 74.8855C89.0539 74.8855 85.1816 78.7578 85.1816 83.5203C85.1816 88.2827 89.0539 92.155 93.8164 92.155C98.5788 92.155 102.451 88.2827 102.451 83.5203Z" fill="#A63805" stroke="white"/>
<path d="M118.721 83.5395C118.72 69.7848 107.551 58.616 93.8164 58.616C80.0817 58.616 68.9127 69.7846 68.9121 83.5192C68.869 92.711 73.4068 101.387 78.7267 108.399C84.0531 115.42 90.2092 120.832 93.5012 123.504L93.8162 123.76L94.1313 123.505C97.4255 120.834 103.582 115.424 108.908 108.406C114.227 101.398 118.764 92.7252 118.721 83.5395ZM118.721 83.5395C118.721 83.5399 118.721 83.5403 118.721 83.5407H118.221L118.721 83.5383C118.721 83.5387 118.721 83.5391 118.721 83.5395ZM91.7473 131.165L91.746 131.164C91.1451 130.739 83.6069 125.302 76.2389 116.713C68.8617 108.114 61.7192 96.4296 61.7773 83.5022V83.5C61.7773 65.8554 76.1511 51.4813 93.8164 51.4813C111.481 51.4813 125.855 65.8552 125.855 83.5203L125.855 83.5226C125.914 96.4397 118.771 108.119 111.394 116.716C104.026 125.302 96.4877 130.739 95.8868 131.164L95.8855 131.165C95.2813 131.595 94.5581 131.826 93.8164 131.826C93.0747 131.826 92.3515 131.595 91.7473 131.165ZM96.1755 131.572C97.412 130.698 126.473 109.714 126.355 83.5203L96.1755 131.572Z" fill="#A63805" stroke="white"/>
<defs>
<filter id="filter0_d_19_57" x="0.225" y="0.6" width="186.112" height="186.112" filterUnits="userSpaceOnUse" color-interpolation-filters="sRGB">
<feFlood flood-opacity="0" result="BackgroundImageFix"/>
<feColorMatrix in="SourceAlpha" type="matrix" values="0 0 0 0 0 0 0 0 0 0 0 0 0 0 0 0 0 0 127 0" result="hardAlpha"/>
<feMorphology radius="7" operator="dilate" in="SourceAlpha" result="effect1_dropShadow_19_57"/>
<feOffset dx="-1" dy="4"/>
<feGaussianBlur stdDeviation="7.7"/>
<feComposite in2="hardAlpha" operator="out"/>
<feColorMatrix type="matrix" values="0 0 0 0 0.65098 0 0 0 0 0.219608 0 0 0 0 0.0196078 0 0 0 0.32 0"/>
<feBlend mode="normal" in2="BackgroundImageFix" result="effect1_dropShadow_19_57"/>
<feBlend mode="normal" in="SourceGraphic" in2="effect1_dropShadow_19_57" result="shape"/>
</filter>
</defs>
</svg>
