<svg width="187" height="187" viewBox="0 0 187 187" fill="none" xmlns="http://www.w3.org/2000/svg">
<g filter="url(#filter0_d_19_59)">
<circle cx="94.6562" cy="89.6562" r="70.6562" fill="white"/>
</g>
<path fill-rule="evenodd" clip-rule="evenodd" d="M68.9349 87.487C68.9349 86.3363 69.392 85.2328 70.2056 84.4192C71.0193 83.6055 72.1228 83.1484 73.2734 83.1484H77.612C78.7626 83.1484 79.8662 83.6055 80.6798 84.4192C81.4934 85.2328 81.9505 86.3363 81.9505 87.487V91.8255C81.9505 92.9762 81.4934 94.0797 80.6798 94.8933C79.8662 95.707 78.7626 96.1641 77.612 96.1641H73.2734C72.1228 96.1641 71.0193 95.707 70.2056 94.8933C69.392 94.0797 68.9349 92.9762 68.9349 91.8255V87.487ZM77.612 87.487V91.8255H73.2734V87.487H77.612ZM90.6276 83.1484C89.4769 83.1484 88.3734 83.6055 87.5598 84.4192C86.7462 85.2328 86.2891 86.3363 86.2891 87.487V91.8255C86.2891 92.9762 86.7462 94.0797 87.5598 94.8933C88.3734 95.707 89.4769 96.1641 90.6276 96.1641H94.9661C96.1168 96.1641 97.2203 95.707 98.034 94.8933C98.8476 94.0797 99.3047 92.9762 99.3047 91.8255V87.487C99.3047 86.3363 98.8476 85.2328 98.034 84.4192C97.2203 83.6055 96.1168 83.1484 94.9661 83.1484H90.6276ZM94.9661 87.487H90.6276V91.8255H94.9661V87.487ZM103.643 87.487C103.643 86.3363 104.1 85.2328 104.914 84.4192C105.728 83.6055 106.831 83.1484 107.982 83.1484H112.32C113.471 83.1484 114.574 83.6055 115.388 84.4192C116.202 85.2328 116.659 86.3363 116.659 87.487V91.8255C116.659 92.9762 116.202 94.0797 115.388 94.8933C114.574 95.707 113.471 96.1641 112.32 96.1641H107.982C106.831 96.1641 105.728 95.707 104.914 94.8933C104.1 94.0797 103.643 92.9762 103.643 91.8255V87.487ZM107.982 87.487H112.32V91.8255H107.982V87.487ZM73.2734 100.503C72.1228 100.503 71.0193 100.96 70.2056 101.773C69.392 102.587 68.9349 103.69 68.9349 104.841V109.18C68.9349 110.33 69.392 111.434 70.2056 112.248C71.0193 113.061 72.1228 113.518 73.2734 113.518H77.612C78.7626 113.518 79.8662 113.061 80.6798 112.248C81.4934 111.434 81.9505 110.33 81.9505 109.18V104.841C81.9505 103.69 81.4934 102.587 80.6798 101.773C79.8662 100.96 78.7626 100.503 77.612 100.503H73.2734ZM73.2734 104.841V109.18H77.612V104.841H73.2734ZM86.2891 104.841C86.2891 103.69 86.7462 102.587 87.5598 101.773C88.3734 100.96 89.4769 100.503 90.6276 100.503H94.9661C96.1168 100.503 97.2203 100.96 98.034 101.773C98.8476 102.587 99.3047 103.69 99.3047 104.841V109.18C99.3047 110.33 98.8476 111.434 98.034 112.248C97.2203 113.061 96.1168 113.518 94.9661 113.518H90.6276C89.4769 113.518 88.3734 113.061 87.5598 112.248C86.7462 111.434 86.2891 110.33 86.2891 109.18V104.841ZM90.6276 104.841H94.9661V109.18H90.6276V104.841Z" fill="#A63805"/>
<path d="M123.167 105.926C123.742 105.926 124.294 106.154 124.701 106.561C125.107 106.968 125.336 107.52 125.336 108.095V112.62L126.87 114.154C127.265 114.563 127.483 115.111 127.478 115.68C127.474 116.248 127.245 116.793 126.843 117.195C126.441 117.597 125.897 117.825 125.328 117.83C124.759 117.835 124.211 117.616 123.802 117.221L120.997 114.416V108.095C120.997 107.52 121.226 106.968 121.633 106.561C122.04 106.154 122.591 105.926 123.167 105.926Z" fill="#A63805"/>
<path fill-rule="evenodd" clip-rule="evenodd" d="M73.2734 52.7786C73.2734 52.2033 73.502 51.6516 73.9088 51.2447C74.3156 50.8379 74.8674 50.6094 75.4427 50.6094C76.018 50.6094 76.5698 50.8379 76.9766 51.2447C77.3834 51.6516 77.612 52.2033 77.612 52.7786V63.625C77.612 64.2003 77.3834 64.7521 76.9766 65.1589C76.5698 65.5657 76.018 65.7943 75.4427 65.7943C74.8674 65.7943 74.3156 65.5657 73.9088 65.1589C73.502 64.7521 73.2734 64.2003 73.2734 63.625V61.4557H66.7656C66.1903 61.4557 65.6385 61.6843 65.2317 62.0911C64.8249 62.4979 64.5964 63.0497 64.5964 63.625V72.3021H120.997V63.625C120.997 63.0497 120.769 62.4979 120.362 62.0911C119.955 61.6843 119.403 61.4557 118.828 61.4557H112.32V57.1172H118.828C120.554 57.1172 122.209 57.8028 123.43 59.0233C124.65 60.2437 125.336 61.899 125.336 63.625V98.4852C129.136 99.0344 132.586 101.002 134.994 103.993C137.401 106.983 138.586 110.774 138.312 114.604C138.037 118.433 136.322 122.016 133.512 124.632C130.702 127.248 127.006 128.702 123.167 128.703C120.718 128.705 118.306 128.114 116.136 126.981C113.965 125.848 112.102 124.206 110.704 122.195H66.7656C65.0396 122.195 63.3844 121.51 62.1639 120.289C60.9435 119.069 60.2578 117.413 60.2578 115.688V63.625C60.2578 61.899 60.9435 60.2437 62.1639 59.0233C63.3844 57.8028 65.0396 57.1172 66.7656 57.1172H73.2734V52.7786ZM107.982 113.518C107.981 109.866 109.296 106.336 111.687 103.575C114.077 100.814 117.383 99.0069 120.997 98.4852V76.6406H64.5964V115.688C64.5964 116.263 64.8249 116.815 65.2317 117.221C65.6385 117.628 66.1903 117.857 66.7656 117.857H108.611C108.192 116.449 107.981 114.987 107.982 113.518ZM123.167 124.365C126.043 124.365 128.802 123.222 130.836 121.188C132.87 119.154 134.013 116.395 134.013 113.518C134.013 110.642 132.87 107.883 130.836 105.849C128.802 103.815 126.043 102.672 123.167 102.672C120.29 102.672 117.531 103.815 115.497 105.849C113.463 107.883 112.32 110.642 112.32 113.518C112.32 116.395 113.463 119.154 115.497 121.188C117.531 123.222 120.29 124.365 123.167 124.365Z" fill="#A63805"/>
<path d="M105.812 65.7943C105.237 65.7943 104.685 65.5657 104.279 65.1589C103.872 64.7521 103.643 64.2003 103.643 63.625V61.4557H81.9505V57.1172H103.643V52.7786C103.643 52.2033 103.872 51.6516 104.279 51.2447C104.685 50.8379 105.237 50.6094 105.812 50.6094C106.388 50.6094 106.94 50.8379 107.346 51.2447C107.753 51.6516 107.982 52.2033 107.982 52.7786V63.625C107.982 64.2003 107.753 64.7521 107.346 65.1589C106.94 65.5657 106.388 65.7943 105.812 65.7943Z" fill="#A63805"/>
<defs>
<filter id="filter0_d_19_59" x="0.6" y="0.6" width="186.112" height="186.112" filterUnits="userSpaceOnUse" color-interpolation-filters="sRGB">
<feFlood flood-opacity="0" result="BackgroundImageFix"/>
<feColorMatrix in="SourceAlpha" type="matrix" values="0 0 0 0 0 0 0 0 0 0 0 0 0 0 0 0 0 0 127 0" result="hardAlpha"/>
<feMorphology radius="7" operator="dilate" in="SourceAlpha" result="effect1_dropShadow_19_59"/>
<feOffset dx="-1" dy="4"/>
<feGaussianBlur stdDeviation="7.7"/>
<feComposite in2="hardAlpha" operator="out"/>
<feColorMatrix type="matrix" values="0 0 0 0 0.65098 0 0 0 0 0.219608 0 0 0 0 0.0196078 0 0 0 0.32 0"/>
<feBlend mode="normal" in2="BackgroundImageFix" result="effect1_dropShadow_19_59"/>
<feBlend mode="normal" in="SourceGraphic" in2="effect1_dropShadow_19_59" result="shape"/>
</filter>
</defs>
</svg>
