<svg width="38" height="38" viewBox="0 0 38 38" fill="none" xmlns="http://www.w3.org/2000/svg">
<g clip-path="url(#clip0_36_1519)">
<path d="M23.75 36.484V23.8173C23.75 23.3974 23.5832 22.9947 23.2863 22.6978C22.9893 22.4008 22.5866 22.234 22.1667 22.234H15.8333C15.4134 22.234 15.0107 22.4008 14.7137 22.6978C14.4168 22.9947 14.25 23.3974 14.25 23.8173V36.484" stroke="#A63805" stroke-opacity="0.63" stroke-width="4" stroke-linecap="round" stroke-linejoin="round"/>
<path d="M4.75 19.0673C4.74989 18.6067 4.85028 18.1516 5.04416 17.7337C5.23805 17.3159 5.52076 16.9453 5.87258 16.648L16.9559 7.14958C17.5275 6.66652 18.2516 6.40149 19 6.40149C19.7484 6.40149 20.4725 6.66652 21.0441 7.14958L32.1274 16.648C32.4792 16.9453 32.762 17.3159 32.9558 17.7337C33.1497 18.1516 33.2501 18.6067 33.25 19.0673V33.3173C33.25 34.1572 32.9164 34.9626 32.3225 35.5565C31.7286 36.1504 30.9232 36.484 30.0833 36.484H7.91667C7.07681 36.484 6.27136 36.1504 5.6775 35.5565C5.08363 34.9626 4.75 34.1572 4.75 33.3173V19.0673Z" stroke="#A63805" stroke-opacity="0.63" stroke-width="4" stroke-linecap="round" stroke-linejoin="round"/>
</g>
<defs>
<clipPath id="clip0_36_1519">
<rect width="38" height="38" fill="white"/>
</clipPath>
</defs>
</svg>
