<svg width="36" height="27" viewBox="0 0 36 27" fill="none" xmlns="http://www.w3.org/2000/svg">
<path d="M0.124 27V8.028H5.488L11.032 16.668L16.468 8.028H21.76V27H17.368V13.608L11.608 22.824H10.312L4.48 13.572V27H0.124ZM25.963 13.752V11.196L29.779 7.992C30.091 7.728 30.439 7.428 30.823 7.092C31.207 6.756 31.543 6.384 31.831 5.976C32.143 5.568 32.299 5.16 32.299 4.752C32.299 4.224 32.143 3.828 31.831 3.564C31.543 3.276 31.135 3.132 30.607 3.132C30.127 3.132 29.731 3.252 29.419 3.492C29.131 3.732 28.975 4.092 28.951 4.572H25.891C25.915 3.108 26.395 2.004 27.331 1.26C28.267 0.515998 29.431 0.143998 30.823 0.143998C32.167 0.143998 33.283 0.503999 34.171 1.224C35.059 1.944 35.503 2.976 35.503 4.32C35.503 5.304 35.275 6.156 34.819 6.876C34.363 7.572 33.811 8.22 33.163 8.82C32.779 9.18 32.383 9.516 31.975 9.828C31.591 10.14 31.195 10.464 30.787 10.8H35.359V13.752H25.963Z" fill="#A63805" fill-opacity="0.63"/>
</svg>
