<svg width="35" height="26" viewBox="0 0 35 26" fill="none" xmlns="http://www.w3.org/2000/svg">
<path d="M24.5 22.5333V26H0V22.5333C0 22.5333 0 15.6 12.25 15.6C24.5 15.6 24.5 22.5333 24.5 22.5333ZM18.375 6.06672C18.375 4.86685 18.0158 3.69392 17.3428 2.69626C16.6697 1.69861 15.7131 0.921031 14.5939 0.46186C13.4747 0.00268997 12.2432 -0.11745 11.0551 0.116633C9.86694 0.350716 8.77557 0.928509 7.91897 1.77695C7.06237 2.62538 6.47903 3.70636 6.24269 4.88317C6.00636 6.05999 6.12765 7.27979 6.59124 8.38832C7.05482 9.49686 7.83988 10.4443 8.84713 11.111C9.85438 11.7776 11.0386 12.1334 12.25 12.1334C13.8745 12.1334 15.4324 11.4942 16.581 10.3565C17.7297 9.21877 18.375 7.67569 18.375 6.06672ZM24.395 15.6C25.4708 16.4247 26.3511 17.4728 26.9739 18.6706C27.5968 19.8685 27.947 21.187 28 22.5333V26H35V22.5333C35 22.5333 35 16.2414 24.395 15.6ZM22.75 6.37805e-05C21.5456 -0.00548484 20.3679 0.351117 19.3725 1.02273C20.4355 2.49387 21.0071 4.25762 21.0071 6.06672C21.0071 7.87582 20.4355 9.63956 19.3725 11.1107C20.3679 11.7823 21.5456 12.1389 22.75 12.1334C24.3745 12.1334 25.9324 11.4942 27.081 10.3565C28.2297 9.21877 28.875 7.67569 28.875 6.06672C28.875 4.45774 28.2297 2.91466 27.081 1.77695C25.9324 0.639227 24.3745 6.37805e-05 22.75 6.37805e-05Z" fill="#A63805" fill-opacity="0.63"/>
</svg>
