<svg width="31" height="31" viewBox="0 0 31 31" fill="none" xmlns="http://www.w3.org/2000/svg">
<path fill-rule="evenodd" clip-rule="evenodd" d="M15.4997 2.58331C8.3658 2.58331 2.58301 8.3661 2.58301 15.5C2.58301 17.9412 3.26113 20.2275 4.44042 22.1753L3.28826 26.0916C3.2221 26.3165 3.21775 26.555 3.27566 26.7821C3.33356 27.0093 3.45159 27.2166 3.61732 27.3823C3.78306 27.5481 3.99038 27.6661 4.2175 27.724C4.44463 27.7819 4.68315 27.7775 4.90801 27.7114L8.82434 26.5592C10.8377 27.7772 13.1466 28.4196 15.4997 28.4166C22.6336 28.4166 28.4163 22.6339 28.4163 15.5C28.4163 8.3661 22.6336 2.58331 15.4997 2.58331ZM12.5779 18.423C15.191 21.0348 17.6852 21.3796 18.5661 21.4119C19.9056 21.461 21.2101 20.438 21.7178 19.251C21.7813 19.1032 21.8043 18.9411 21.7843 18.7815C21.7643 18.6219 21.7021 18.4705 21.6041 18.3429C20.8963 17.4388 19.9391 16.7891 19.004 16.1432C18.8088 16.0079 18.5688 15.9536 18.3344 15.9916C18.1 16.0297 17.8895 16.1572 17.7472 16.3473L16.9722 17.5292C16.9312 17.5925 16.8677 17.6378 16.7946 17.6561C16.7214 17.6743 16.6441 17.664 16.5782 17.6274C16.0525 17.3264 15.2866 16.8149 14.7363 16.2646C14.1861 15.7144 13.7056 14.9833 13.4356 14.4912C13.4029 14.4285 13.3937 14.3562 13.4096 14.2873C13.4254 14.2184 13.4653 14.1574 13.5221 14.1153L14.7156 13.2292C14.8865 13.0815 14.9967 12.8758 15.0253 12.6518C15.0539 12.4277 14.9989 12.201 14.8706 12.0151C14.292 11.1677 13.6177 10.0905 12.6399 9.37619C12.5135 9.28533 12.3657 9.22867 12.2109 9.2117C12.0561 9.19473 11.8996 9.21802 11.7564 9.27931C10.5681 9.78823 9.53992 11.0928 9.58901 12.4349C9.6213 13.3158 9.96617 15.81 12.5779 18.423Z" fill="white"/>
</svg>
