<svg width="35" height="34" viewBox="0 0 35 34" fill="none" xmlns="http://www.w3.org/2000/svg">
<path d="M28.4331 11.3178L17.5 21.6708L6.56687 11.3178C6.37154 11.1324 6.10931 11.0286 5.83625 11.0286C5.56318 11.0286 5.30095 11.1324 5.10562 11.3178C5.01104 11.4078 4.9359 11.5152 4.8846 11.6338C4.83331 11.7524 4.80688 11.8797 4.80688 12.0084C4.80688 12.137 4.83331 12.2643 4.8846 12.3829C4.9359 12.5015 5.01104 12.609 5.10562 12.699L16.7366 23.715C16.9408 23.9084 17.2148 24.0166 17.5 24.0166C17.7852 24.0166 18.0592 23.9084 18.2634 23.715L29.8944 12.7011C29.9896 12.611 30.0653 12.5033 30.117 12.3843C30.1687 12.2654 30.1954 12.1375 30.1954 12.0084C30.1954 11.8792 30.1687 11.7514 30.117 11.6324C30.0653 11.5134 29.9896 11.4057 29.8944 11.3156C29.699 11.1303 29.4368 11.0265 29.1637 11.0265C28.8907 11.0265 28.6285 11.1303 28.4331 11.3156V11.3178Z" fill="black" fill-opacity="0.21"/>
<path d="M28.7769 11.6808L28.8082 11.6511C28.9057 11.572 29.0313 11.5265 29.1637 11.5265C29.3107 11.5265 29.4492 11.5825 29.5502 11.6783L29.5508 11.6789C29.5976 11.7231 29.6339 11.7752 29.6584 11.8317C29.6829 11.8881 29.6954 11.9481 29.6954 12.0084C29.6954 12.0687 29.6829 12.1287 29.6584 12.1851C29.6339 12.2415 29.5976 12.2936 29.5508 12.3379L29.5506 12.3381L17.9197 23.3519C17.9197 23.3519 17.9196 23.3519 17.9196 23.3519C17.8097 23.4561 17.6593 23.5166 17.5 23.5166C17.3407 23.5166 17.1903 23.4561 17.0804 23.352C17.0804 23.352 17.0804 23.352 17.0803 23.3519L5.45034 12.3368C5.45022 12.3367 5.45009 12.3366 5.44997 12.3365C5.40371 12.2924 5.36777 12.2405 5.34351 12.1844C5.3192 12.1282 5.30688 12.0684 5.30688 12.0084C5.30688 11.9483 5.3192 11.8885 5.34351 11.8323C5.36779 11.7762 5.40376 11.7243 5.45007 11.6802C5.55103 11.5845 5.68939 11.5286 5.83625 11.5286C5.98324 11.5286 6.12171 11.5846 6.22269 11.6804L6.22308 11.6808L17.1562 22.0338L17.5 22.3594L17.8438 22.0338L28.7769 11.6808Z" stroke="black" stroke-opacity="0.21"/>
</svg>
