<svg width="35" height="34" viewBox="0 0 35 34" fill="none" xmlns="http://www.w3.org/2000/svg">
<path d="M28.4331 22.6822L17.5 12.3292L6.56687 22.6822C6.37154 22.8676 6.10931 22.9714 5.83625 22.9714C5.56318 22.9714 5.30095 22.8676 5.10562 22.6822C5.01104 22.5922 4.9359 22.4848 4.8846 22.3662C4.83331 22.2476 4.80688 22.1203 4.80688 21.9916C4.80688 21.863 4.83331 21.7357 4.8846 21.6171C4.9359 21.4985 5.01104 21.391 5.10562 21.301L16.7366 10.285C16.9408 10.0916 17.2148 9.98335 17.5 9.98335C17.7852 9.98335 18.0592 10.0916 18.2634 10.285L29.8944 21.2989C29.9896 21.389 30.0653 21.4967 30.117 21.6157C30.1687 21.7346 30.1954 21.8625 30.1954 21.9916C30.1954 22.1208 30.1687 22.2486 30.117 22.3676C30.0653 22.4866 29.9896 22.5943 29.8944 22.6844C29.699 22.8697 29.4368 22.9735 29.1637 22.9735C28.8907 22.9735 28.6285 22.8697 28.4331 22.6844V22.6822Z" fill="black" fill-opacity="0.21"/>
<path d="M28.7769 22.3192L28.8082 22.3489C28.9057 22.428 29.0313 22.4735 29.1637 22.4735C29.3107 22.4735 29.4492 22.4175 29.5502 22.3217L29.5508 22.3211C29.5976 22.2769 29.6339 22.2248 29.6584 22.1683C29.6829 22.1119 29.6954 22.0519 29.6954 21.9916C29.6954 21.9313 29.6829 21.8713 29.6584 21.8149C29.6339 21.7585 29.5976 21.7064 29.5508 21.6621L29.5506 21.6619L17.9197 10.6481C17.9197 10.6481 17.9196 10.6481 17.9196 10.6481C17.8097 10.5439 17.6593 10.4834 17.5 10.4834C17.3407 10.4834 17.1903 10.5439 17.0804 10.648C17.0804 10.648 17.0804 10.648 17.0803 10.6481L5.45034 21.6632C5.45022 21.6633 5.45009 21.6634 5.44997 21.6635C5.40371 21.7076 5.36777 21.7595 5.34351 21.8156C5.3192 21.8718 5.30688 21.9316 5.30688 21.9916C5.30688 22.0517 5.3192 22.1115 5.34351 22.1677C5.36779 22.2238 5.40376 22.2757 5.45007 22.3198C5.55103 22.4155 5.68939 22.4714 5.83625 22.4714C5.98324 22.4714 6.12171 22.4154 6.22269 22.3196L6.22308 22.3192L17.1562 11.9662L17.5 11.6406L17.8438 11.9662L28.7769 22.3192Z" stroke="black" stroke-opacity="0.21"/>
</svg>
