<svg width="30" height="30" viewBox="0 0 30 30" fill="none" xmlns="http://www.w3.org/2000/svg">
<circle cx="14.5882" cy="14.5882" r="14.5882" fill="white"/>
<path d="M21.9951 12.001C20.82 11.9364 19.6542 12.2418 18.6618 12.8744C18.4218 12.601 18.1751 12.3277 17.9151 12.0677L17.7218 11.8877L17.8151 11.8077C18.1411 11.5278 18.3734 11.1547 18.4807 10.7387C18.588 10.3226 18.5651 9.88365 18.4151 9.48103C18.1984 9.02648 17.8543 8.64465 17.4247 8.38192C16.9951 8.11919 16.4985 7.98687 15.9951 8.00103V9.33436C16.2323 9.33106 16.4661 9.3911 16.6723 9.50829C16.8786 9.62548 17.0498 9.79558 17.1684 10.001C17.2818 10.2677 17.1684 10.561 16.8551 10.8744L16.7018 11.0144C16.0064 10.4349 15.243 9.94235 14.4284 9.5477C12.7418 8.7877 11.8751 9.14103 11.4484 9.5477C11.3187 9.67823 11.2146 9.83201 11.1418 10.001L11.0218 10.3544L10.0618 13.2477C10.8218 15.141 12.6618 18.5077 16.6618 19.961L19.9951 18.8544C20.1075 18.8125 20.2065 18.7411 20.2818 18.6477L20.4218 18.5277C21.3751 17.5677 20.7618 15.721 19.4818 13.9277C20.2418 13.4841 21.1169 13.2775 21.9951 13.3344V12.001ZM19.4684 17.581H19.4284C18.9684 17.8277 17.0618 17.201 14.9018 15.041C14.6751 14.8144 14.4618 14.5944 14.2684 14.3744C14.2018 14.301 14.1418 14.221 14.0751 14.141L13.7218 13.7144L13.5351 13.4544C13.4418 13.3277 13.3484 13.201 13.2684 13.081C13.1884 12.961 13.1618 12.9077 13.1084 12.821C13.0551 12.7344 12.9618 12.5944 12.9018 12.481C12.8418 12.3677 12.8151 12.321 12.7751 12.2344C12.7351 12.1477 12.6618 12.0477 12.6218 11.9544C12.5818 11.861 12.5618 11.801 12.5284 11.7277C12.4951 11.6544 12.4551 11.5477 12.4284 11.461C12.4018 11.3744 12.3951 11.3344 12.3818 11.2677C12.3684 11.201 12.3418 11.1077 12.3284 11.041C12.3252 10.9877 12.3252 10.9343 12.3284 10.881C12.3221 10.8234 12.3221 10.7653 12.3284 10.7077L12.4018 10.501C12.5151 10.381 13.0084 10.3477 13.8884 10.7477C14.4761 11.031 15.0325 11.3751 15.5484 11.7744C15.2673 11.898 14.9677 11.9746 14.6618 12.001V13.3344C15.3702 13.295 16.0576 13.0796 16.6618 12.7077L16.9884 13.0144C17.2818 13.301 17.5418 13.5877 17.7818 13.861C17.3793 14.5463 17.2196 15.3472 17.3284 16.1344L18.6618 15.8744C18.6163 15.6231 18.6163 15.3657 18.6618 15.1144C19.5218 16.4277 19.6818 17.3744 19.4684 17.581ZM9.59509 14.6677L8.10842 19.1344C8.00112 19.4623 7.97295 19.811 8.02621 20.1519C8.07946 20.4928 8.21264 20.8163 8.41485 21.0958C8.61706 21.3754 8.88256 21.6032 9.18966 21.7605C9.49675 21.9178 9.83671 22.0003 10.1818 22.001C10.4086 21.9989 10.6336 21.9607 10.8484 21.8877L15.1951 20.441C12.7418 19.1881 10.7726 17.158 9.59509 14.6677Z" fill="#801525"/>
</svg>
