<svg width="30" height="30" viewBox="0 0 30 30" fill="none" xmlns="http://www.w3.org/2000/svg">
<circle cx="14.5882" cy="14.5882" r="14.5882" fill="white"/>
<path d="M13.96 8V8.66667L13.4467 8.24L11.1333 11L13.2933 12.3333V10.7733L13.1467 10.6667L13.96 9.70667V22.6667H15.2933V16.16L16.58 14.8733C18.2933 15.14 20.0467 14.24 21.0667 13.22L20.12 12.2733C19.36 13.04 17.76 13.74 16.6267 13.5067L15.2933 12.16V8M17.2933 10C16.9397 10 16.6006 10.1405 16.3505 10.3905C16.1005 10.6406 15.96 10.9797 15.96 11.3333C15.96 11.687 16.1005 12.0261 16.3505 12.2761C16.6006 12.5262 16.9397 12.6667 17.2933 12.6667C17.647 12.6667 17.9861 12.5262 18.2361 12.2761C18.4862 12.0261 18.6267 11.687 18.6267 11.3333C18.6267 10.9797 18.4862 10.6406 18.2361 10.3905C17.9861 10.1405 17.647 10 17.2933 10ZM13.2933 12.5067L10.6933 15.1067C9.46 16.3333 8.83333 17.2333 8 19.44L9.25333 19.9067C9.92 18.1333 10.4 17.4267 11.2067 16.56L12.1067 17.46L8.80667 20.76L9.75333 21.7067L13.2933 18.16V12.5067Z" fill="#801525"/>
</svg>
