<svg width="30" height="30" viewBox="0 0 30 30" fill="none" xmlns="http://www.w3.org/2000/svg">
<circle cx="14.7059" cy="14.5882" r="14.5882" fill="white"/>
<path d="M11.125 16.6906L9.81297 20.6654M8 20.2179L11.6247 21.1108M9.21557 13.4145L11.5795 8L16.0423 9.09767L14.7449 14.776C14.669 15.1153 14.5122 15.4372 14.2846 15.7214C14.057 16.0056 13.7635 16.2458 13.4227 16.4267C13.0819 16.6077 12.7013 16.7255 12.305 16.7726C11.9087 16.8197 11.5054 16.7951 11.1208 16.7004C10.7361 16.6056 10.3784 16.4428 10.0704 16.2223C9.76241 16.0018 9.51086 15.7284 9.3317 15.4194C9.15255 15.1104 9.04972 14.7726 9.02972 14.4275C9.00973 14.0823 9.07302 13.7373 9.21557 13.4145Z" stroke="#801525" stroke-width="1.5" stroke-linecap="round" stroke-linejoin="round"/>
<path d="M10.3994 10.6988L15.3911 11.9389" stroke="#801525" stroke-width="1.5"/>
<path d="M17.0196 16.5301C17.5389 16.7515 18.1232 16.8327 18.6966 16.7633C19.27 16.6939 19.806 16.4771 20.2349 16.1411C20.6637 15.8051 20.9657 15.3653 21.1015 14.879C21.2373 14.3928 21.2006 13.8825 20.9962 13.4145L18.6298 8L17.9261 8.17204M19.0855 16.6906L20.3976 20.6654M22.2105 20.2179L18.5858 21.1108M19.8112 10.7114L17.7722 11.2181" stroke="#801525" stroke-width="1.5" stroke-linecap="round" stroke-linejoin="round"/>
</svg>
