<svg width="30" height="30" viewBox="0 0 30 30" fill="none" xmlns="http://www.w3.org/2000/svg">
<circle cx="14.5882" cy="14.5882" r="14.5882" fill="white"/>
<path d="M14.575 17.9867C15.315 17.9867 15.9404 17.7464 16.4514 17.266C16.9623 16.7856 17.2178 16.1969 17.2178 15.5C17.2178 14.8031 16.9623 14.2144 16.4514 13.734C15.9404 13.2536 15.315 13.0131 14.575 13.0127C13.835 13.0122 13.2096 13.2527 12.6986 13.734C12.1877 14.2153 11.9322 14.804 11.9322 15.5C11.9322 16.196 12.1877 16.7847 12.6986 17.266C13.2096 17.7473 13.835 17.9878 14.575 17.9873M14.575 17.3207C14.0249 17.3207 13.5649 17.1467 13.1952 16.7987C12.8254 16.4507 12.6405 16.0178 12.6405 15.5C12.6405 14.9822 12.8254 14.5493 13.1952 14.2013C13.5649 13.8533 14.0249 13.6793 14.575 13.6793C15.1251 13.6793 15.5851 13.8533 15.9548 14.2013C16.3246 14.5493 16.5095 14.9822 16.5095 15.5C16.5095 16.0178 16.3246 16.4507 15.9548 16.7987C15.5851 17.1467 15.1251 17.3207 14.575 17.3207ZM9.34466 20.1667C9.01836 20.1667 8.74612 20.064 8.52796 19.8587C8.30979 19.6533 8.20047 19.3969 8.2 19.0893V11.9107C8.2 11.6036 8.30932 11.3473 8.52796 11.142C8.74659 10.9367 9.01859 10.8338 9.34396 10.8333H11.4392L12.7496 9.5H16.4004L17.7108 10.8333H19.806C20.1319 10.8333 20.4039 10.9362 20.622 11.142C20.8402 11.3478 20.9495 11.604 20.95 11.9107V19.09C20.95 19.3967 20.8407 19.6529 20.622 19.8587C20.4034 20.0644 20.1314 20.1671 19.806 20.1667H9.34466Z" fill="#801525"/>
</svg>
