<svg width="22" height="22" viewBox="0 0 22 22" fill="none" xmlns="http://www.w3.org/2000/svg">
<path d="M8.47917 16.3333C6.28403 16.3333 4.42642 15.5729 2.90633 14.052C1.38625 12.5311 0.625806 10.6735 0.625001 8.47917C0.624195 6.28483 1.38464 4.42722 2.90633 2.90633C4.42803 1.38544 6.28564 0.625 8.47917 0.625C10.6727 0.625 12.5307 1.38544 14.0532 2.90633C15.5757 4.42722 16.3358 6.28483 16.3333 8.47917C16.3333 9.36528 16.1924 10.201 15.9104 10.9865C15.6285 11.7719 15.2458 12.4667 14.7625 13.0708L21.5292 19.8375C21.7507 20.059 21.8615 20.341 21.8615 20.6833C21.8615 21.0257 21.7507 21.3076 21.5292 21.5292C21.3076 21.7507 21.0257 21.8615 20.6833 21.8615C20.341 21.8615 20.059 21.7507 19.8375 21.5292L13.0708 14.7625C12.4667 15.2458 11.7719 15.6285 10.9865 15.9104C10.201 16.1924 9.36528 16.3333 8.47917 16.3333ZM8.47917 13.9167C9.98958 13.9167 11.2736 13.3882 12.3313 12.3313C13.389 11.2744 13.9175 9.99039 13.9167 8.47917C13.9159 6.96794 13.3874 5.68429 12.3313 4.62821C11.2753 3.57213 9.9912 3.04328 8.47917 3.04167C6.96714 3.04006 5.68349 3.5689 4.62821 4.62821C3.57293 5.68751 3.04408 6.97117 3.04167 8.47917C3.03925 9.98717 3.5681 11.2712 4.62821 12.3313C5.68832 13.3914 6.97197 13.9199 8.47917 13.9167Z" fill="white"/>
</svg>
