<svg width="48" height="46" viewBox="0 0 48 46" fill="none" xmlns="http://www.w3.org/2000/svg">
<path d="M38.994 15.3123L24 29.3193L9.00598 15.3123C8.7381 15.0615 8.37847 14.9211 8.00398 14.9211C7.6295 14.9211 7.26987 15.0615 7.00198 15.3123C6.87227 15.4341 6.76922 15.5794 6.69887 15.7399C6.62852 15.9003 6.59229 16.0726 6.59229 16.2467C6.59229 16.4207 6.62852 16.593 6.69887 16.7534C6.76922 16.9139 6.87227 17.0592 7.00198 17.181L22.953 32.085C23.2331 32.3467 23.6088 32.4931 24 32.4931C24.3912 32.4931 24.7669 32.3467 25.047 32.085L40.998 17.1839C41.1286 17.062 41.2324 16.9163 41.3033 16.7553C41.3742 16.5943 41.4108 16.4214 41.4108 16.2467C41.4108 16.0719 41.3742 15.899 41.3033 15.738C41.2324 15.577 41.1286 15.4313 40.998 15.3094C40.7301 15.0586 40.3705 14.9182 39.996 14.9182C39.6215 14.9182 39.2619 15.0586 38.994 15.3094V15.3123Z" fill="#A63805" fill-opacity="0.63"/>
<path d="M39.3353 15.6777L39.3831 15.633C39.5508 15.4964 39.7676 15.4182 39.996 15.4182C40.2465 15.4182 40.4831 15.5123 40.6563 15.6744L40.6569 15.675C40.7388 15.7514 40.8026 15.8416 40.8457 15.9395C40.8889 16.0374 40.9108 16.1418 40.9108 16.2467C40.9108 16.3515 40.8889 16.4559 40.8457 16.5538C40.8026 16.6517 40.7388 16.7419 40.6569 16.8183L40.6567 16.8185L24.7057 31.7196C24.7057 31.7196 24.7057 31.7196 24.7057 31.7197C24.5202 31.8929 24.2673 31.9931 24 31.9931C23.7327 31.9931 23.4798 31.8929 23.2943 31.7197C23.2943 31.7197 23.2943 31.7197 23.2943 31.7196L7.34424 16.8165C7.3441 16.8164 7.34397 16.8163 7.34383 16.8161C7.26273 16.7399 7.19953 16.6501 7.15679 16.5526C7.114 16.455 7.09229 16.3511 7.09229 16.2467C7.09229 16.1422 7.114 16.0383 7.15679 15.9407C7.19955 15.8432 7.2628 15.7533 7.34397 15.677C7.51709 15.5151 7.75364 15.4211 8.00398 15.4211C8.25446 15.4211 8.49112 15.5152 8.66427 15.6773L8.66466 15.6777L23.6587 29.6846L24 30.0035L24.3413 29.6846L39.3353 15.6777Z" stroke="#A63805" stroke-opacity="0.63"/>
</svg>
