<svg width="48" height="46" viewBox="0 0 48 46" fill="none" xmlns="http://www.w3.org/2000/svg">
<path d="M38.994 30.6877L24 16.6807L9.00598 30.6877C8.7381 30.9385 8.37847 31.0789 8.00398 31.0789C7.6295 31.0789 7.26987 30.9385 7.00198 30.6877C6.87227 30.5659 6.76922 30.4206 6.69887 30.2601C6.62852 30.0997 6.59229 29.9274 6.59229 29.7533C6.59229 29.5793 6.62852 29.407 6.69887 29.2466C6.76922 29.0861 6.87227 28.9408 7.00198 28.819L22.953 13.915C23.2331 13.6533 23.6088 13.5069 24 13.5069C24.3912 13.5069 24.7669 13.6533 25.047 13.915L40.998 28.8161C41.1286 28.938 41.2324 29.0837 41.3033 29.2447C41.3742 29.4057 41.4108 29.5786 41.4108 29.7533C41.4108 29.9281 41.3742 30.101 41.3033 30.262C41.2324 30.423 41.1286 30.5687 40.998 30.6906C40.7301 30.9414 40.3705 31.0818 39.996 31.0818C39.6215 31.0818 39.2619 30.9414 38.994 30.6906V30.6877Z" fill="#A63805" fill-opacity="0.63"/>
<path d="M39.3353 30.3223L39.3831 30.367C39.5508 30.5036 39.7676 30.5818 39.996 30.5818C40.2465 30.5818 40.4831 30.4877 40.6563 30.3256L40.6569 30.325C40.7388 30.2486 40.8026 30.1584 40.8457 30.0605C40.8889 29.9626 40.9108 29.8582 40.9108 29.7533C40.9108 29.6485 40.8889 29.5441 40.8457 29.4462C40.8026 29.3483 40.7388 29.2581 40.6569 29.1817L40.6567 29.1815L24.7057 14.2804C24.7057 14.2804 24.7057 14.2804 24.7057 14.2803C24.5202 14.1071 24.2673 14.0069 24 14.0069C23.7327 14.0069 23.4798 14.1071 23.2943 14.2803C23.2943 14.2803 23.2943 14.2803 23.2943 14.2804L7.34424 29.1835C7.3441 29.1836 7.34397 29.1837 7.34383 29.1839C7.26273 29.2601 7.19953 29.3499 7.15679 29.4474C7.114 29.545 7.09229 29.6489 7.09229 29.7533C7.09229 29.8578 7.114 29.9617 7.15679 30.0593C7.19955 30.1568 7.2628 30.2467 7.34397 30.323C7.51709 30.4849 7.75364 30.5789 8.00398 30.5789C8.25446 30.5789 8.49112 30.4848 8.66427 30.3227L8.66466 30.3223L23.6587 16.3154L24 15.9965L24.3413 16.3154L39.3353 30.3223Z" stroke="#A63805" stroke-opacity="0.63"/>
</svg>
