<svg width="60" height="55" viewBox="0 0 60 55" fill="none" xmlns="http://www.w3.org/2000/svg">
<rect x="18.7" y="0.7" width="23.5162" height="33.0994" rx="4.3" fill="#801525" stroke="white" stroke-width="1.4"/>
<path d="M35.4895 2.52602L21.3648 0.795565C19.5766 0.57649 18 1.97175 18 3.7733V31.7342C18 33.266 19.1539 34.5517 20.6768 34.7168L34.8014 36.2475C36.5758 36.4398 38.1247 35.0498 38.1247 33.265V5.50376C38.1247 3.98799 36.994 2.71034 35.4895 2.52602Z" fill="white" stroke="white" stroke-width="0.7"/>
<ellipse cx="34.4831" cy="19.0705" rx="1.14998" ry="1.24581" fill="white"/>
<path d="M1.8 40.5H5.205C5.875 40.5 6.43 40.595 6.87 40.785C7.31 40.965 7.655 41.195 7.905 41.475C8.165 41.745 8.345 42.04 8.445 42.36C8.555 42.68 8.61 42.975 8.61 43.245C8.61 43.545 8.56 43.855 8.46 44.175C8.36 44.485 8.2 44.775 7.98 45.045C7.76 45.315 7.475 45.54 7.125 45.72C6.785 45.9 6.375 46.005 5.895 46.035V46.095L6.045 46.17C6.165 46.23 6.265 46.305 6.345 46.395C6.435 46.485 6.545 46.63 6.675 46.83C6.815 47.03 7 47.315 7.23 47.685C7.46 48.045 7.785 48.53 8.205 49.14C8.345 49.35 8.48 49.54 8.61 49.71C8.74 49.87 8.875 50.01 9.015 50.13C9.155 50.24 9.305 50.325 9.465 50.385C9.625 50.445 9.81 50.475 10.02 50.475C10.07 50.475 10.12 50.475 10.17 50.475C10.22 50.465 10.27 50.455 10.32 50.445V51C10.18 51.08 10.04 51.13 9.9 51.15C9.76 51.17 9.58 51.18 9.36 51.18C9.06 51.18 8.8 51.14 8.58 51.06C8.37 50.98 8.18 50.875 8.01 50.745C7.84 50.605 7.68 50.44 7.53 50.25C7.39 50.06 7.245 49.85 7.095 49.62L5.91 47.865C5.73 47.585 5.575 47.35 5.445 47.16C5.315 46.97 5.175 46.815 5.025 46.695C4.875 46.575 4.705 46.49 4.515 46.44C4.335 46.39 4.105 46.365 3.825 46.365H3.165V51H1.8V40.5ZM3.165 41.16V45.69H4.71C5.11 45.69 5.46 45.62 5.76 45.48C6.07 45.34 6.33 45.16 6.54 44.94C6.75 44.71 6.905 44.46 7.005 44.19C7.115 43.91 7.17 43.635 7.17 43.365C7.17 43.045 7.11 42.75 6.99 42.48C6.88 42.21 6.715 41.98 6.495 41.79C6.275 41.59 6.01 41.435 5.7 41.325C5.4 41.215 5.06 41.16 4.68 41.16H3.165ZM19.2866 47.265C19.2866 47.785 19.1966 48.285 19.0166 48.765C18.8366 49.235 18.5766 49.65 18.2366 50.01C17.9066 50.37 17.5016 50.655 17.0216 50.865C16.5516 51.075 16.0216 51.18 15.4316 51.18C14.8316 51.18 14.2866 51.075 13.7966 50.865C13.3166 50.645 12.9066 50.355 12.5666 49.995C12.2366 49.635 11.9766 49.22 11.7866 48.75C11.6066 48.27 11.5166 47.775 11.5166 47.265C11.5166 46.745 11.6066 46.25 11.7866 45.78C11.9766 45.3 12.2366 44.88 12.5666 44.52C12.9066 44.16 13.3166 43.875 13.7966 43.665C14.2866 43.445 14.8316 43.335 15.4316 43.335C16.0216 43.335 16.5516 43.445 17.0216 43.665C17.5016 43.875 17.9066 44.16 18.2366 44.52C18.5766 44.88 18.8366 45.3 19.0166 45.78C19.1966 46.25 19.2866 46.745 19.2866 47.265ZM17.8616 47.265C17.8616 46.565 17.7866 46 17.6366 45.57C17.4866 45.13 17.2916 44.79 17.0516 44.55C16.8116 44.31 16.5466 44.15 16.2566 44.07C15.9666 43.98 15.6866 43.935 15.4166 43.935C15.1466 43.935 14.8666 43.98 14.5766 44.07C14.2866 44.15 14.0166 44.31 13.7666 44.55C13.5266 44.79 13.3266 45.13 13.1666 45.57C13.0166 46 12.9416 46.565 12.9416 47.265C12.9416 47.955 13.0166 48.52 13.1666 48.96C13.3266 49.39 13.5266 49.725 13.7666 49.965C14.0166 50.205 14.2866 50.37 14.5766 50.46C14.8666 50.54 15.1466 50.58 15.4166 50.58C15.6866 50.58 15.9666 50.54 16.2566 50.46C16.5466 50.37 16.8116 50.205 17.0516 49.965C17.2916 49.725 17.4866 49.39 17.6366 48.96C17.7866 48.52 17.8616 47.955 17.8616 47.265ZM28.5591 47.265C28.5591 47.785 28.4691 48.285 28.2891 48.765C28.1091 49.235 27.8491 49.65 27.5091 50.01C27.1791 50.37 26.7741 50.655 26.2941 50.865C25.8241 51.075 25.2941 51.18 24.7041 51.18C24.1041 51.18 23.5591 51.075 23.0691 50.865C22.5891 50.645 22.1791 50.355 21.8391 49.995C21.5091 49.635 21.2491 49.22 21.0591 48.75C20.8791 48.27 20.7891 47.775 20.7891 47.265C20.7891 46.745 20.8791 46.25 21.0591 45.78C21.2491 45.3 21.5091 44.88 21.8391 44.52C22.1791 44.16 22.5891 43.875 23.0691 43.665C23.5591 43.445 24.1041 43.335 24.7041 43.335C25.2941 43.335 25.8241 43.445 26.2941 43.665C26.7741 43.875 27.1791 44.16 27.5091 44.52C27.8491 44.88 28.1091 45.3 28.2891 45.78C28.4691 46.25 28.5591 46.745 28.5591 47.265ZM27.1341 47.265C27.1341 46.565 27.0591 46 26.9091 45.57C26.7591 45.13 26.5641 44.79 26.3241 44.55C26.0841 44.31 25.8191 44.15 25.5291 44.07C25.2391 43.98 24.9591 43.935 24.6891 43.935C24.4191 43.935 24.1391 43.98 23.8491 44.07C23.5591 44.15 23.2891 44.31 23.0391 44.55C22.7991 44.79 22.5991 45.13 22.4391 45.57C22.2891 46 22.2141 46.565 22.2141 47.265C22.2141 47.955 22.2891 48.52 22.4391 48.96C22.5991 49.39 22.7991 49.725 23.0391 49.965C23.2891 50.205 23.5591 50.37 23.8491 50.46C24.1391 50.54 24.4191 50.58 24.6891 50.58C24.9591 50.58 25.2391 50.54 25.5291 50.46C25.8191 50.37 26.0841 50.205 26.3241 49.965C26.5641 49.725 26.7591 49.39 26.9091 48.96C27.0591 48.52 27.1341 47.955 27.1341 47.265ZM31.7865 51H30.5115V43.5H31.7865V44.715H31.8465C31.9665 44.425 32.1165 44.19 32.2965 44.01C32.4865 43.83 32.6865 43.69 32.8965 43.59C33.1065 43.49 33.3165 43.425 33.5265 43.395C33.7365 43.355 33.9165 43.335 34.0665 43.335C34.3965 43.335 34.6765 43.38 34.9065 43.47C35.1465 43.56 35.3515 43.675 35.5215 43.815C35.6915 43.955 35.8315 44.11 35.9415 44.28C36.0515 44.44 36.1365 44.6 36.1965 44.76H36.3015C36.4515 44.45 36.6265 44.2 36.8265 44.01C37.0365 43.82 37.2515 43.675 37.4715 43.575C37.6915 43.475 37.9015 43.41 38.1015 43.38C38.3015 43.35 38.4765 43.335 38.6265 43.335C39.1465 43.335 39.5615 43.42 39.8715 43.59C40.1915 43.75 40.4315 43.955 40.5915 44.205C40.7615 44.445 40.8715 44.71 40.9215 45C40.9715 45.28 40.9965 45.535 40.9965 45.765V51H39.7215V46.2C39.7215 45.86 39.7015 45.56 39.6615 45.3C39.6315 45.04 39.5615 44.82 39.4515 44.64C39.3515 44.46 39.2065 44.325 39.0165 44.235C38.8265 44.145 38.5765 44.1 38.2665 44.1C37.8465 44.1 37.5115 44.195 37.2615 44.385C37.0215 44.575 36.8365 44.805 36.7065 45.075C36.5765 45.345 36.4915 45.635 36.4515 45.945C36.4115 46.245 36.3915 46.505 36.3915 46.725V51H35.1165V46.2C35.1165 46.02 35.1065 45.81 35.0865 45.57C35.0765 45.33 35.0265 45.1 34.9365 44.88C34.8465 44.66 34.7065 44.475 34.5165 44.325C34.3365 44.175 34.0765 44.1 33.7365 44.1C33.2665 44.1 32.9015 44.205 32.6415 44.415C32.3815 44.615 32.1865 44.86 32.0565 45.15C31.9365 45.43 31.8615 45.72 31.8315 46.02C31.8015 46.31 31.7865 46.545 31.7865 46.725V51ZM43.8821 43.5H45.1571V51H43.8821V43.5ZM43.7021 41.13C43.7021 40.91 43.7821 40.72 43.9421 40.56C44.1021 40.4 44.2921 40.32 44.5121 40.32C44.7321 40.32 44.9221 40.4 45.0821 40.56C45.2421 40.72 45.3221 40.91 45.3221 41.13C45.3221 41.35 45.2421 41.54 45.0821 41.7C44.9221 41.86 44.7321 41.94 44.5121 41.94C44.2921 41.94 44.1021 41.86 43.9421 41.7C43.7821 41.54 43.7021 41.35 43.7021 41.13ZM47.2664 43.5H48.5714V42.6C48.5714 42.21 48.6314 41.87 48.7514 41.58C48.8714 41.29 49.0264 41.055 49.2164 40.875C49.4164 40.685 49.6414 40.545 49.8914 40.455C50.1414 40.365 50.3964 40.32 50.6564 40.32C50.9764 40.32 51.2614 40.38 51.5114 40.5C51.7714 40.62 52.0214 40.8 52.2614 41.04L51.6014 41.745C51.5014 41.535 51.3714 41.33 51.2114 41.13C51.0614 40.93 50.8664 40.83 50.6264 40.83C50.4364 40.83 50.2864 40.88 50.1764 40.98C50.0764 41.08 50.0014 41.205 49.9514 41.355C49.9014 41.495 49.8714 41.65 49.8614 41.82C49.8514 41.98 49.8464 42.12 49.8464 42.24V43.5H51.6614V44.1H49.8464V51H48.5714V44.1H47.2664V43.5ZM56.3756 49.245H56.4356L58.7906 43.5H59.5256L55.8956 52.425C55.7856 52.695 55.6706 52.965 55.5506 53.235C55.4306 53.515 55.2906 53.765 55.1306 53.985C54.9706 54.215 54.7856 54.4 54.5756 54.54C54.3656 54.68 54.1206 54.75 53.8406 54.75C53.6406 54.75 53.4256 54.71 53.1956 54.63C52.9656 54.55 52.7556 54.425 52.5656 54.255L53.2256 53.01C53.3156 53.21 53.4406 53.36 53.6006 53.46C53.7706 53.57 53.9456 53.625 54.1256 53.625C54.3156 53.625 54.4806 53.555 54.6206 53.415C54.7706 53.275 54.8906 53.09 54.9806 52.86L55.7756 50.91L52.4156 43.5H53.7806L56.3756 49.245Z" fill="white"/>
</svg>
